<svg width="132" height="106" viewBox="0 0 132 106" fill="none" xmlns="http://www.w3.org/2000/svg">
<path d="M64.2499 27.4992L22.0017 63.432V102.214C22.0017 103.218 22.388 104.181 23.0756 104.891C23.7632 105.601 24.6957 106 25.6681 106L51.3466 105.931C52.3158 105.926 53.2436 105.525 53.9272 104.816C54.6109 104.106 54.9946 103.146 54.9946 102.145V79.497C54.9946 78.4929 55.3809 77.5299 56.0685 76.8198C56.756 76.1098 57.6886 75.7109 58.661 75.7109H73.3265C74.2989 75.7109 75.2315 76.1098 75.9191 76.8198C76.6066 77.5299 76.9929 78.4929 76.9929 79.497V102.129C76.9914 102.627 77.0851 103.12 77.2687 103.581C77.4523 104.042 77.7221 104.461 78.0627 104.814C78.4033 105.166 78.808 105.446 79.2536 105.637C79.6992 105.828 80.1769 105.927 80.6593 105.927L106.329 106C107.301 106 108.234 105.601 108.921 104.891C109.609 104.181 109.995 103.218 109.995 102.214V63.406L67.7559 27.4992C67.2593 27.0858 66.6407 26.8604 66.0029 26.8604C65.3651 26.8604 64.7465 27.0858 64.2499 27.4992ZM130.985 51.9221L111.828 35.6157V2.8396C111.828 2.08649 111.538 1.36423 111.023 0.831701C110.507 0.299172 109.808 0 109.078 0H96.246C95.5167 0 94.8173 0.299172 94.3016 0.831701C93.7859 1.36423 93.4962 2.08649 93.4962 2.8396V20.0216L72.9805 2.59114C71.0117 0.918089 68.5412 0.00334445 65.9915 0.00334445C63.4418 0.00334445 60.9712 0.918089 59.0024 2.59114L0.997941 51.9221C0.719496 52.1598 0.489127 52.4518 0.319997 52.7814C0.150867 53.111 0.0462898 53.4719 0.0122415 53.8432C-0.0218069 54.2146 0.0153407 54.5893 0.121562 54.9458C0.227783 55.3024 0.400995 55.6338 0.631303 55.9212L6.4746 63.2569C6.70428 63.5453 6.98679 63.7841 7.30595 63.9596C7.62511 64.1351 7.97466 64.2439 8.33458 64.2797C8.69451 64.3155 9.05774 64.2777 9.40349 64.1684C9.74924 64.0591 10.0707 63.8804 10.3495 63.6426L64.2499 17.7972C64.7465 17.3839 65.3651 17.1585 66.0029 17.1585C66.6407 17.1585 67.2593 17.3839 67.7559 17.7972L121.659 63.6426C121.937 63.8804 122.258 64.0593 122.603 64.169C122.948 64.2787 123.311 64.317 123.671 64.2819C124.031 64.2467 124.38 64.1387 124.699 63.9641C125.018 63.7894 125.301 63.5515 125.531 63.264L131.375 55.9283C131.605 55.6393 131.777 55.3061 131.882 54.948C131.987 54.5899 132.022 54.2139 131.986 53.8416C131.95 53.4693 131.843 53.1081 131.671 52.7787C131.499 52.4493 131.266 52.1582 130.985 51.9221Z" fill="#825353"/>
</svg>
